# Blender 4.5.0
# www.blender.org
mtllib HalfPipe.mtl
o HalfPipe
v -9.517155 -0.112165 4.180809
v -9.517155 -0.112165 -4.180811
v 9.517157 -0.112165 4.180809
v 9.517157 0.112165 4.180809
v 9.517157 -0.112165 -4.180811
v 9.517157 0.112165 -4.180811
v 7.296479 -0.112165 -4.180811
v -7.296492 -0.112165 -4.180811
v -7.296492 -0.112165 4.180809
v -9.517155 4.807414 4.180809
v -9.517155 4.807414 -4.180811
v 9.517157 4.807414 -4.180811
v 9.517157 4.807414 4.180809
v 7.296479 4.807414 4.180809
v -7.296492 4.807414 -4.180811
v -2.668862 0.112165 -4.180811
v -9.517098 0.112165 -4.180811
v -7.226188 4.034929 -4.180811
v -7.017411 3.208786 -4.180811
v -6.676507 2.394571 -4.180811
v -6.213832 1.661154 -4.180811
v -5.643445 1.082804 -4.180811
v -4.982677 0.667816 -4.180811
v -4.251605 0.362286 -4.180811
v -3.472441 0.175174 -4.180811
v 2.668849 0.112165 -4.180811
v 7.296479 4.807414 -4.180811
v 3.472428 0.175174 -4.180811
v 4.251591 0.362286 -4.180811
v 4.982664 0.667816 -4.180811
v 5.643432 1.082805 -4.180811
v 6.213820 1.661154 -4.180811
v 6.676494 2.394571 -4.180811
v 7.017399 3.208786 -4.180811
v 7.226175 4.034929 -4.180811
v 2.668849 0.112165 4.180809
v 7.296479 -0.112116 4.180809
v 7.226175 4.034929 4.180809
v 7.017399 3.208786 4.180809
v 6.676494 2.394571 4.180809
v 6.213820 1.661154 4.180809
v 5.643432 1.082805 4.180809
v 4.982664 0.667816 4.180809
v 4.251591 0.362286 4.180809
v 3.472428 0.175174 4.180809
v -2.668862 0.112165 4.180809
v -7.296492 4.807414 4.180809
v -9.517098 0.112165 4.180809
v -3.472441 0.175174 4.180809
v -4.251605 0.362286 4.180809
v -4.982677 0.667816 4.180809
v -5.643445 1.082804 4.180809
v -6.213832 1.661154 4.180809
v -6.676507 2.394571 4.180809
v -7.017411 3.208786 4.180809
v -7.226188 4.034929 4.180809
vn -1.0000 0.0002 -0.0000
vn -1.0000 0.0001 -0.0000
vn 1.0000 -0.0000 -0.0000
vn -0.0000 -1.0000 -0.0000
vn -0.0000 -0.0000 1.0000
vn -0.0000 -0.0000 -1.0000
vn -0.0391 0.9992 -0.0000
vn 0.0391 0.9992 -0.0000
vn -0.0000 1.0000 -0.0000
vn -1.0000 -0.0000 -0.0000
vn -0.1556 0.9878 -0.0000
vn -0.3092 0.9510 -0.0000
vn -0.4586 0.8886 -0.0000
vn -0.6231 0.7822 -0.0000
vn -0.7816 0.6238 -0.0000
vn -0.8865 0.4627 -0.0000
vn -0.9484 0.3172 -0.0000
vn -0.9857 0.1688 -0.0000
vn -0.9959 0.0906 -0.0000
vn 0.9959 0.0906 -0.0000
vn 0.9857 0.1688 -0.0000
vn 0.9484 0.3172 -0.0000
vn 0.8865 0.4627 -0.0000
vn 0.7816 0.6238 -0.0000
vn 0.6231 0.7822 -0.0000
vn 0.4586 0.8886 -0.0000
vn 0.3092 0.9510 -0.0000
vn 0.1556 0.9878 -0.0000
vt 0.000298 0.679160
vt 0.000298 0.674106
vt 0.188672 0.674106
vt 0.188672 0.679160
vt 0.188454 0.000080
vt 0.188454 0.005134
vt 0.000080 0.005134
vt 0.000080 0.000080
vt 0.188672 0.962498
vt 0.188672 0.999920
vt 0.000298 0.999920
vt 0.000298 0.962498
vt 0.414564 0.049748
vt 0.309701 0.000322
vt 0.417671 0.010702
vt 0.304282 0.249389
vt 0.309700 0.294226
vt 0.303332 0.294470
vt 0.188832 0.000080
vt 0.195201 0.000328
vt 0.189734 0.045167
vt 0.188672 0.716582
vt 0.000298 0.716582
vt 0.309699 0.294220
vt 0.414607 0.244816
vt 0.417657 0.283762
vt 0.303332 0.000080
vt 0.309700 0.000328
vt 0.304234 0.045167
vt 0.188563 0.294646
vt 0.188563 0.384595
vt 0.000189 0.384595
vt 0.000189 0.294646
vt 0.188672 0.530908
vt 0.188672 0.568330
vt 0.000298 0.568330
vt 0.000298 0.530908
vt 0.188454 0.110910
vt 0.188454 0.148332
vt 0.000080 0.148332
vt 0.000080 0.110910
vt 0.304285 0.045166
vt 0.308430 0.109928
vt 0.308429 0.184627
vt 0.304231 0.249388
vt 0.189782 0.249389
vt 0.195200 0.294226
vt 0.188832 0.294470
vt 0.189786 0.045166
vt 0.193930 0.109928
vt 0.193929 0.184627
vt 0.189731 0.249388
vt 0.195200 0.294220
vt 0.300107 0.244816
vt 0.303157 0.283763
vt 0.300065 0.049748
vt 0.282275 0.049236
vt 0.195113 0.195372
vt 0.396775 0.049236
vt 0.309612 0.195373
vt 0.000189 0.281030
vt 0.188563 0.281030
vt 0.000189 0.267239
vt 0.188563 0.267239
vt 0.000189 0.253127
vt 0.188563 0.253127
vt 0.000189 0.238588
vt 0.188563 0.238588
vt 0.000189 0.222397
vt 0.188563 0.222397
vt 0.000189 0.204127
vt 0.188563 0.204127
vt 0.000189 0.184905
vt 0.188563 0.184905
vt 0.000189 0.165964
vt 0.188563 0.165964
vt 0.000189 0.148521
vt 0.188563 0.148521
vt 0.188563 0.530720
vt 0.000189 0.530720
vt 0.000189 0.513276
vt 0.188563 0.513276
vt 0.000189 0.494335
vt 0.188563 0.494335
vt 0.000189 0.475114
vt 0.188563 0.475114
vt 0.000189 0.456844
vt 0.188563 0.456844
vt 0.000189 0.440653
vt 0.188563 0.440653
vt 0.000189 0.426113
vt 0.188563 0.426113
vt 0.000189 0.412001
vt 0.188563 0.412001
vt 0.000189 0.398211
vt 0.188563 0.398211
vt 0.195201 0.000322
vt 0.303171 0.010702
vt 0.282276 0.245328
vt 0.300068 0.244819
vt 0.225775 0.232603
vt 0.213099 0.224551
vt 0.204566 0.215610
vt 0.198637 0.205805
vt 0.262985 0.243513
vt 0.243642 0.239276
vt 0.225776 0.061954
vt 0.213101 0.070004
vt 0.204568 0.078945
vt 0.198638 0.088750
vt 0.195114 0.099182
vt 0.243643 0.055282
vt 0.262985 0.051048
vt 0.396776 0.245328
vt 0.414568 0.244819
vt 0.377485 0.243513
vt 0.358142 0.239276
vt 0.340275 0.232603
vt 0.327599 0.224551
vt 0.319065 0.215611
vt 0.313136 0.205805
vt 0.327601 0.070004
vt 0.319067 0.078945
vt 0.313138 0.088750
vt 0.309614 0.099183
vt 0.340276 0.061954
vt 0.358142 0.055282
vt 0.377484 0.051048
s 1
f 1/1/1 48/2/2 17/3/2 2/4/1
f 5/5/3 6/6/3 4/7/3 3/8/3
f 7/9/4 5/10/4 3/11/4 37/12/4
f 14/13/5 4/14/5 13/15/5
f 9/16/5 48/17/5 1/18/5
f 2/19/6 17/20/6 8/21/6
f 2/4/4 8/22/4 9/23/4 1/1/4
f 8/22/4 7/9/4 37/12/4 9/23/4
f 48/24/5 47/25/5 10/26/5
f 3/27/5 4/28/5 37/29/5
f 26/30/7 16/31/8 46/32/8 36/33/7
f 15/34/9 11/35/9 10/36/9 47/37/9
f 12/38/9 27/39/9 14/40/9 13/41/9
f 37/42/5 36/43/5 46/44/5 9/45/5
f 7/46/6 6/47/6 5/48/6
f 8/49/6 16/50/6 26/51/6 7/52/6
f 6/53/6 27/54/6 12/55/6
f 4/7/3 6/6/3 12/38/3 13/41/3
f 17/3/2 48/2/2 10/36/10 11/35/10
f 15/56/6 18/57/6 17/20/6
f 26/51/6 28/58/6 6/53/6 7/46/6
f 14/13/5 38/59/5 4/28/5
f 46/44/5 49/60/5 48/24/5 9/16/5
f 26/30/7 36/33/7 45/61/11 28/62/11
f 28/62/11 45/61/11 44/63/12 29/64/12
f 29/64/12 44/63/12 43/65/13 30/66/13
f 30/66/13 43/65/13 42/67/14 31/68/14
f 31/68/14 42/67/14 41/69/15 32/70/15
f 32/70/15 41/69/15 40/71/16 33/72/16
f 33/72/16 40/71/16 39/73/17 34/74/17
f 34/74/17 39/73/17 38/75/18 35/76/18
f 35/76/18 38/75/18 14/77/19 27/78/19
f 15/79/20 47/80/20 56/81/21 18/82/21
f 18/82/21 56/81/21 55/83/22 19/84/22
f 19/84/22 55/83/22 54/85/23 20/86/23
f 20/86/23 54/85/23 53/87/24 21/88/24
f 21/88/24 53/87/24 52/89/25 22/90/25
f 22/90/25 52/89/25 51/91/26 23/92/26
f 23/92/26 51/91/26 50/93/27 24/94/27
f 24/94/27 50/93/27 49/95/28 25/96/28
f 25/96/28 49/95/28 46/32/8 16/31/8
f 15/56/6 17/97/6 11/98/6
f 6/53/6 35/99/6 27/100/6
f 32/101/6 6/53/6 31/102/6
f 31/102/6 6/53/6 30/103/6
f 30/103/6 6/53/6 29/104/6
f 29/104/6 6/53/6 28/58/6
f 35/99/6 6/53/6 34/105/6
f 34/105/6 6/53/6 33/106/6
f 33/106/6 6/53/6 32/101/6
f 17/20/6 21/107/6 22/108/6
f 22/108/6 23/109/6 17/20/6
f 23/109/6 24/110/6 17/20/6
f 24/110/6 25/111/6 17/20/6
f 25/111/6 16/50/6 8/49/6 17/20/6
f 17/20/6 20/112/6 21/107/6
f 17/20/6 18/57/6 19/113/6
f 19/113/6 20/112/6 17/20/6
f 48/24/5 56/114/5 47/115/5
f 56/114/5 48/24/5 55/116/5
f 55/116/5 48/24/5 54/117/5
f 54/117/5 48/24/5 53/118/5
f 53/118/5 48/24/5 52/119/5
f 52/119/5 48/24/5 51/120/5
f 51/120/5 48/24/5 50/121/5
f 50/121/5 48/24/5 49/60/5
f 4/28/5 42/122/5 43/123/5
f 43/123/5 44/124/5 4/28/5
f 44/124/5 45/125/5 4/28/5
f 45/125/5 36/43/5 37/42/5 4/28/5
f 4/28/5 41/126/5 42/122/5
f 41/126/5 4/28/5 40/127/5
f 40/127/5 4/28/5 39/128/5
f 39/128/5 4/28/5 38/59/5
